<svg xmlns="http://www.w3.org/2000/svg" viewBox="0 0 312.85 60.55"><path d="M94.84 10.09c12.18 0 20.58 7.2 20.58 20.21v27.33c0 1.11-.55 1.66-1.57 1.66h-10.7a1.47 1.47 0 0 1-1.66-1.66V29.85c0-4.52-2.22-7.2-7.11-7.2a12.81 12.81 0 0 0-6 1.48 18.16 18.16 0 0 1 .92 6v27.5c0 1.11-.55 1.66-1.57 1.66H77a1.47 1.47 0 0 1-1.66-1.66V29.85c0-4.8-2.22-7.29-6.74-7.29a19.29 19.29 0 0 0-5.45.83v34.24a1.51 1.51 0 0 1-1.66 1.66H50.81a1.47 1.47 0 0 1-1.66-1.66V15.72a2.07 2.07 0 0 1 1.29-2 49.28 49.28 0 0 1 18-3.6A21.33 21.33 0 0 1 81 14c4.89-2.61 8.86-3.91 13.84-3.91zm90.44 50.46c-10.88 0-17.06-6.64-17.06-17.9v-41A1.47 1.47 0 0 1 169.87 0h10.88c1 0 1.57.55 1.57 1.66V40.9c0 4.61 1.84 6.73 5.44 6.73.92 0 1.94 0 2.86-.09a1.44 1.44 0 0 1 1.75 1.57v9.22c0 .83-.37 1.57-1 1.66a34.37 34.37 0 0 1-6.09.56zM262.73 48c.83 0 1.94-.09 3-.19 1.2-.18 1.75.28 1.75 1.38v9a1.65 1.65 0 0 1-1.29 1.84 34.53 34.53 0 0 1-5.81.46c-10.7 0-17.9-5.81-17.9-17.62V1.57c0-1 .55-1.57 1.66-1.57h10.8a1.46 1.46 0 0 1 1.66 1.48v8.61h9.22a1.48 1.48 0 0 1 1.66 1.57v8.86a1.48 1.48 0 0 1-1.66 1.57h-9.22v19.1c-.05 4.51 2.07 6.81 6.13 6.81zm-46.38-37.91c-8.2 0-21.45 2.52-21.45 25.23s12.61 25.23 21.45 25.23 14.63-2.49 19.34-6.09a1.55 1.55 0 0 0 .28-2.31l-4.8-6.36a1.31 1.31 0 0 0-2.12-.37 22.68 22.68 0 0 1-11.72 3.32c-4.89 0-7.93-2.4-7.93-7.1v-1.47h26.1c1.11 0 1.66-.55 1.66-1.57v-5.17c0-20.82-12.61-23.34-20.81-23.34zM223.6 31h-14.21v-1.9c0-5.07 2.86-7.29 7.1-7.29s7.1 2.31 7.1 7.29zm-81.68-20.91c-8.2 0-21.45 2.52-21.45 25.23s12.61 25.23 21.45 25.23 14.63-2.49 19.34-6.09a1.55 1.55 0 0 0 .28-2.31l-4.8-6.36a1.31 1.31 0 0 0-2.12-.37 22.68 22.68 0 0 1-11.72 3.32c-4.89 0-7.93-2.4-7.93-7.1v-1.47h26.11c1.11 0 1.66-.55 1.66-1.57v-5.17c-.01-20.82-12.62-23.34-20.82-23.34zM149.17 31H135v-1.9c0-5.07 2.86-7.29 7.1-7.29s7.1 2.31 7.1 7.29zM292 10.09c-8.2 0-21.45 2.52-21.45 25.23S283.21 60.55 292 60.55s14.63-2.49 19.34-6.09a1.55 1.55 0 0 0 .28-2.31l-4.8-6.36a1.31 1.31 0 0 0-2.12-.37 22.68 22.68 0 0 1-11.7 3.32c-4.89 0-7.93-2.4-7.93-7.1v-1.47h26.11c1.11 0 1.66-.55 1.66-1.57v-5.17c.01-20.82-12.6-23.34-20.84-23.34zM299.29 31h-14.21v-1.9c0-5.07 2.86-7.29 7.1-7.29s7.1 2.31 7.1 7.29zM22.12 10.09C15.14 10.09 0 13.88 0 35.32 0 57.4 13.25 60.55 22.12 60.55s22-3.15 22-25.23c.03-21.44-15.12-25.23-22-25.23zm0 37.84c-5 0-8.2-5-8.2-11.35 0-6.94 3.78-13.88 8.2-13.88s8.2 6.94 8.2 13.88c-.04 6.31-3.2 11.36-8.24 11.36z" fill="#ffc20e"/></svg>